<?xml version="1.0" encoding="UTF-8" standalone="no"?>
<!DOCTYPE svg PUBLIC "-//W3C//DTD SVG 1.1//EN" "http://www.w3.org/Graphics/SVG/1.1/DTD/svg11.dtd">
<svg width="100%" height="100%" viewBox="0 0 48 48" version="1.1" xmlns="http://www.w3.org/2000/svg" xmlns:xlink="http://www.w3.org/1999/xlink" xml:space="preserve" xmlns:serif="http://www.serif.com/" style="fill-rule:evenodd;clip-rule:evenodd;stroke-linejoin:round;stroke-miterlimit:2;">
    <g>
        <path d="M2.942,43.583C4.991,39.736 8.743,28.792 8.917,26.065C8.973,25.184 9.399,25.218 10.269,25.638C12.093,26.517 15.44,28.249 19.018,27.612C24.302,26.672 25.322,25.403 24.65,23.005C23.978,20.607 21.174,19.996 17.558,21.5C13.942,23.005 11.266,23.381 9.921,22.488C9.025,21.892 9.272,18.704 10.663,12.924C16.855,14.375 20.793,14.497 22.477,13.29C25.003,11.48 25.919,10.752 24.389,8.389C22.914,6.11 19.01,6.974 16.576,8.479C14.143,9.983 9.185,8.596 7.655,8.982C6.676,9.23 6.06,13.657 5.808,22.264C5.446,24.707 5.192,26.397 5.045,27.334C4.851,28.577 2.089,45.186 2.942,43.583Z" style="fill:rgb(0,82,67);fill-rule:nonzero;"/>
        <path d="M23.186,44.93C23.895,45.152 28.037,29.109 28.635,25.242C29.232,21.375 30.063,15.344 29.938,13.656C29.813,11.969 31.563,17.641 32.219,21.391C32.875,25.141 35.204,42.668 37.151,45.079C37.42,45.411 44.068,26.736 45.404,18.896C46.398,13.068 45.608,6.2 44.602,6.047C43.266,5.844 42.727,10.453 42.164,16.031C41.602,21.609 38.023,36.869 37.664,36.047C36.641,33.703 36.775,29.728 36.359,26.766C35.838,23.046 34.824,18.162 33.219,13.719C32.321,11.233 30.775,7.503 30.234,6.82C29.005,5.269 27.87,6.53 27.905,8.991C27.94,11.452 27.264,18.246 26.525,21.27C25.787,24.293 23.326,35.648 22.939,36.703C22.553,37.758 22.655,44.763 23.186,44.93Z" style="fill:rgb(0,82,67);fill-rule:nonzero;"/>
    </g>
</svg>
