<?xml version="1.0" encoding="UTF-8" standalone="no"?><!-- Generator: Gravit.io --><svg xmlns="http://www.w3.org/2000/svg" xmlns:xlink="http://www.w3.org/1999/xlink" style="isolation:isolate" viewBox="0 0 48 48" width="48pt" height="48pt"><defs><clipPath id="_clipPath_uftftouYe6MsTxNhnCNEaroEsp5Ot99N"><rect width="48" height="48"/></clipPath></defs><g clip-path="url(#_clipPath_uftftouYe6MsTxNhnCNEaroEsp5Ot99N)"><path d=" M 2.942 43.583 C 4.991 39.736 8.743 28.792 8.917 26.065 C 8.973 25.184 9.399 25.218 10.269 25.638 C 12.093 26.517 15.44 28.249 19.018 27.612 C 24.302 26.672 25.322 25.403 24.65 23.005 C 23.978 20.607 21.174 19.996 17.558 21.5 C 13.942 23.005 11.266 23.381 9.921 22.488 Q 8.577 21.594 10.663 12.924 Q 19.951 15.1 22.477 13.29 C 25.003 11.48 25.919 10.752 24.389 8.389 C 22.914 6.11 19.01 6.974 16.576 8.479 C 14.143 9.983 9.185 8.596 7.655 8.982 Q 6.186 9.354 5.808 22.264 Q 5.265 25.928 5.045 27.334 C 4.851 28.577 2.089 45.186 2.942 43.583 Z " fill="rgb(65,105,225)"/><path d=" M 23.186 44.93 C 23.895 45.152 28.037 29.109 28.635 25.242 C 29.232 21.375 30.063 15.344 29.938 13.656 C 29.813 11.969 31.563 17.641 32.219 21.391 C 32.875 25.141 35.204 42.668 37.151 45.079 C 37.42 45.411 44.068 26.736 45.404 18.896 C 46.398 13.068 45.608 6.2 44.602 6.047 C 43.266 5.844 42.727 10.453 42.164 16.031 C 41.602 21.609 38.023 36.869 37.664 36.047 C 36.641 33.703 36.775 29.728 36.359 26.766 C 35.838 23.046 34.824 18.162 33.219 13.719 C 32.321 11.233 30.775 7.503 30.234 6.82 C 29.005 5.269 27.87 6.53 27.905 8.991 C 27.94 11.452 27.264 18.246 26.525 21.27 C 25.787 24.293 23.326 35.648 22.939 36.703 C 22.553 37.758 22.655 44.763 23.186 44.93 Z " fill="rgb(65,105,225)"/></g></svg>